# xmcd CD database file
#
# Track frame offsets:
#	150
#	22042
#	40594
#	62606
#	89207
#	110064
#	127020
#	151080
#	168708
#	198109
#	216298
#
# Disc length: 3234 seconds
#
# Revision: 3
# Processed by: cddbd v1.5.2PL0 Copyright (c) Steve Scherf et al.
# Submitted via: CDex 1.51
#
DISCID=9b0ca00b
DTITLE=PHIL GUY and LURRIE BELL - Chicago Blues Session Volume 25(Chicao's Hottest Guitars!)
DYEAR=1900
DGENRE=Blues
TTITLE0=What Can A Poor Man Do(Lurrie Bell)
TTITLE1=Wine Headed Woman(Phil Guy)
TTITLE2=Little Red Rooster(Lurrie Bell)
TTITLE3=What Have I Done(Phil Guy)
TTITLE4=Goin' To Louisiana(Lurrie Bell)
TTITLE5=Nobody Wants To Loose(Lurrie Bell)
TTITLE6=Sky Is Crying(Phil Guy)
TTITLE7=Sweet Home Chicago(Lurrie Bell)
TTITLE8=Part' Time Love(Phil Guy)
TTITLE9=Walkin' Thru The Park(Lurrie Bell)
TTITLE10=Love Light(Phil Guy)
EXTD=
EXTT0=
EXTT1=
EXTT2=
EXTT3=
EXTT4=
EXTT5=
EXTT6=
EXTT7=
EXTT8=
EXTT9=
EXTT10=
PLAYORDER=
